<svg width="135" height="24" viewBox="0 0 135 24" fill="none" xmlns="http://www.w3.org/2000/svg">
<g clip-path="url(#clip0_2004_823)">
<path fill-rule="evenodd" clip-rule="evenodd" d="M0.5 8.37209V17.3023H3.30335C3.59785 17.3023 3.88948 17.3601 4.1616 17.4723C4.43365 17.5845 4.68093 17.7489 4.88913 17.9562C5.09739 18.1635 5.26261 18.4097 5.37534 18.6805C5.48799 18.9514 5.54603 19.2417 5.54603 19.5349V22.3256H12.2741L20.6841 13.9535V5.02326H17.8808C17.5862 5.02326 17.2946 4.96552 17.0225 4.85332C16.7504 4.74112 16.5032 4.57667 16.295 4.36936C16.0867 4.16205 15.9215 3.91592 15.8087 3.64506C15.6961 3.3742 15.6381 3.08389 15.6381 2.7907V0H8.91004L0.5 8.37209ZM10.0314 16.7442H6.10669V10.6047L11.1527 5.5814H15.0774V11.7209L10.0314 16.7442Z" fill="#0004E8"/>
<path d="M129.772 6.83496C131.189 6.83496 132.327 7.27031 133.188 8.14101C134.063 8.99792 134.5 10.2003 134.5 11.7482V18.4858H131.585V12.1421C131.585 11.2438 131.355 10.5596 130.897 10.0898C130.439 9.60601 129.814 9.36417 129.023 9.36417C128.232 9.36417 127.6 9.60601 127.128 10.0898C126.67 10.5596 126.441 11.2438 126.441 12.1421V18.4858H123.525V12.1421C123.525 11.2438 123.296 10.5596 122.838 10.0898C122.38 9.60601 121.755 9.36417 120.964 9.36417C120.159 9.36417 119.52 9.60601 119.048 10.0898C118.59 10.5596 118.361 11.2438 118.361 12.1421V18.4858H115.445V7.00078H118.361V8.38977C118.736 7.90609 119.214 7.52599 119.798 7.2496C120.395 6.97316 121.047 6.83496 121.755 6.83496C122.658 6.83496 123.463 7.02847 124.171 7.41543C124.879 7.7886 125.427 8.32759 125.816 9.03247C126.191 8.36906 126.732 7.83693 127.44 7.43613C128.162 7.03533 128.94 6.83496 129.772 6.83496Z" fill="#000150"/>
<path d="M113.297 7.00073V18.4858H110.361V17.0346C109.986 17.5322 109.493 17.926 108.882 18.2163C108.285 18.4927 107.633 18.6309 106.925 18.6309C106.022 18.6309 105.224 18.4443 104.53 18.0711C103.836 17.6842 103.288 17.1244 102.885 16.3919C102.496 15.6456 102.302 14.7611 102.302 13.7384V7.00073H105.217V13.3237C105.217 14.2359 105.446 14.9408 105.904 15.4383C106.363 15.922 106.987 16.1639 107.778 16.1639C108.584 16.1639 109.215 15.922 109.674 15.4383C110.132 14.9408 110.361 14.2359 110.361 13.3237V7.00073H113.297Z" fill="#000150"/>
<path d="M96.2018 18.6724C95.2576 18.6724 94.4104 18.5066 93.6608 18.1749C92.9112 17.8294 92.3141 17.3663 91.8701 16.7859C91.4395 16.2054 91.2034 15.5628 91.1619 14.8579H94.0982C94.1537 15.3002 94.369 15.6664 94.744 15.9566C95.1326 16.2469 95.6114 16.392 96.1805 16.392C96.7361 16.392 97.1667 16.2814 97.4717 16.0603C97.7913 15.8392 97.9511 15.5558 97.9511 15.2104C97.9511 14.8372 97.7565 14.5607 97.368 14.3811C96.9929 14.1876 96.389 13.9803 95.5559 13.7591C94.6953 13.5518 93.9871 13.3376 93.4321 13.1165C92.8905 12.8954 92.4184 12.5567 92.0158 12.1007C91.6267 11.6446 91.4327 11.0296 91.4327 10.2556C91.4327 9.61986 91.6133 9.0394 91.9743 8.51419C92.3489 7.98898 92.8765 7.57439 93.5565 7.27032C94.2512 6.96625 95.0631 6.81421 95.9932 6.81421C97.368 6.81421 98.4646 7.15975 99.2838 7.85079C100.103 8.52803 100.554 9.44706 100.637 10.6081H97.8468C97.8053 10.1519 97.6107 9.79261 97.2637 9.53C96.9307 9.25361 96.4793 9.11536 95.9102 9.11536C95.3826 9.11536 94.9728 9.21214 94.6812 9.40565C94.4037 9.5991 94.2647 9.86863 94.2647 10.2141C94.2647 10.6011 94.4592 10.8983 94.8478 11.1056C95.2369 11.2991 95.8407 11.4995 96.6599 11.7067C97.4924 11.9141 98.1798 12.1283 98.7214 12.3494C99.263 12.5706 99.7278 12.9161 100.117 13.386C100.519 13.8421 100.728 14.4502 100.742 15.2104C100.742 15.8737 100.554 16.468 100.179 16.9932C99.8181 17.5184 99.2905 17.933 98.5964 18.2371C97.9163 18.5273 97.1179 18.6724 96.2018 18.6724Z" fill="#000150"/>
<path d="M81.3171 8.65931C81.6922 8.1341 82.2058 7.69875 82.8584 7.35326C83.5245 6.99393 84.2814 6.81421 85.128 6.81421C86.1137 6.81421 87.0023 7.05611 87.794 7.53985C88.5991 8.02353 89.2304 8.71456 89.6891 9.61294C90.1611 10.4975 90.3966 11.5271 90.3966 12.7019C90.3966 13.8766 90.1611 14.9201 89.6891 15.8322C89.2304 16.7306 88.5991 17.4286 87.794 17.9261C87.0023 18.4236 86.1137 18.6724 85.128 18.6724C84.2814 18.6724 83.5318 18.4996 82.8792 18.1542C82.2406 17.8086 81.7197 17.3733 81.3171 16.8481V23.9589H78.4017V7.0008H81.3171V8.65931ZM87.4189 12.7019C87.4189 12.0108 87.2731 11.4165 86.9816 10.919C86.704 10.4076 86.329 10.0207 85.8569 9.75806C85.3988 9.49546 84.8993 9.36418 84.3576 9.36418C83.8301 9.36418 83.3305 9.50238 82.8584 9.77877C82.3998 10.0414 82.0253 10.4283 81.7337 10.9397C81.4562 11.4511 81.3171 12.0523 81.3171 12.7433C81.3171 13.4344 81.4562 14.0356 81.7337 14.547C82.0253 15.0583 82.3998 15.4522 82.8584 15.7286C83.3305 15.9912 83.8301 16.1225 84.3576 16.1225C84.8993 16.1225 85.3988 15.9843 85.8569 15.7079C86.329 15.4314 86.704 15.0376 86.9816 14.5262C87.2731 14.0148 87.4189 13.4067 87.4189 12.7019Z" fill="#000150"/>
<path d="M74.8128 5.63257C74.2992 5.63257 73.8692 5.47363 73.5221 5.15575C73.1886 4.82405 73.022 4.41634 73.022 3.93261C73.022 3.44889 73.1886 3.04809 73.5221 2.73021C73.8692 2.39852 74.2992 2.23267 74.8128 2.23267C75.3269 2.23267 75.7503 2.39852 76.0833 2.73021C76.4303 3.04809 76.6042 3.44889 76.6042 3.93261C76.6042 4.41634 76.4303 4.82405 76.0833 5.15575C75.7503 5.47363 75.3269 5.63257 74.8128 5.63257ZM76.2498 7.0008V18.4859H73.3343V7.0008H76.2498Z" fill="#000150"/>
<path d="M65.906 18.6724C64.7953 18.6724 63.7962 18.4305 62.9076 17.9469C62.0189 17.4493 61.3181 16.7513 60.8039 15.853C60.3044 14.9547 60.0543 13.9181 60.0543 12.7433C60.0543 11.5686 60.3111 10.532 60.8247 9.63365C61.3523 8.73532 62.0677 8.04429 62.9698 7.56055C63.8725 7.06303 64.8789 6.81421 65.9896 6.81421C67.1002 6.81421 68.1066 7.06303 69.0093 7.56055C69.9114 8.04429 70.6196 8.73532 71.1331 9.63365C71.6607 10.532 71.9248 11.5686 71.9248 12.7433C71.9248 13.9181 71.654 14.9547 71.1124 15.853C70.5848 16.7513 69.8632 17.4493 68.9465 17.9469C68.0444 18.4305 67.0307 18.6724 65.906 18.6724ZM65.906 16.1432C66.4336 16.1432 66.9264 16.0188 67.3851 15.7701C67.8571 15.5075 68.2317 15.1205 68.5092 14.6091C68.7873 14.0978 68.9258 13.4758 68.9258 12.7433C68.9258 11.6515 68.6342 10.8153 68.0511 10.2349C67.4821 9.64057 66.7807 9.34342 65.9481 9.34342C65.1149 9.34342 64.4141 9.64057 63.8444 10.2349C63.2894 10.8153 63.0118 11.6515 63.0118 12.7433C63.0118 13.8352 63.2821 14.6782 63.8237 15.2725C64.3793 15.853 65.0734 16.1432 65.906 16.1432Z" fill="#000150"/>
<path d="M53.3551 18.6724C52.2444 18.6724 51.2448 18.4305 50.3563 17.9469C49.4677 17.4493 48.7666 16.7513 48.2529 15.853C47.7532 14.9547 47.5033 13.9181 47.5033 12.7433C47.5033 11.5686 47.7601 10.532 48.2738 9.63365C48.8013 8.73532 49.5164 8.04429 50.4187 7.56055C51.3212 7.06303 52.3277 6.81421 53.4384 6.81421C54.5491 6.81421 55.5556 7.06303 56.4581 7.56055C57.3603 8.04429 58.0684 8.73532 58.582 9.63365C59.1096 10.532 59.3736 11.5686 59.3736 12.7433C59.3736 13.9181 59.1028 14.9547 58.5612 15.853C58.0336 16.7513 57.3121 17.4493 56.3955 17.9469C55.4931 18.4305 54.4797 18.6724 53.3551 18.6724ZM53.3551 16.1432C53.8827 16.1432 54.3755 16.0188 54.8337 15.7701C55.3057 15.5075 55.6806 15.1205 55.9582 14.6091C56.2359 14.0978 56.3747 13.4758 56.3747 12.7433C56.3747 11.6515 56.0832 10.8153 55.5001 10.2349C54.9308 9.64057 54.2297 9.34342 53.3967 9.34342C52.5638 9.34342 51.8626 9.64057 51.2934 10.2349C50.7381 10.8153 50.4604 11.6515 50.4604 12.7433C50.4604 13.8352 50.7312 14.6782 51.2726 15.2725C51.8279 15.853 52.5221 16.1432 53.3551 16.1432Z" fill="#000150"/>
<path d="M40.804 18.6724C39.6933 18.6724 38.6937 18.4305 37.8052 17.9469C36.9166 17.4493 36.2155 16.7513 35.7018 15.853C35.202 14.9547 34.9521 13.9181 34.9521 12.7433C34.9521 11.5686 35.209 10.532 35.7227 9.63365C36.2502 8.73532 36.9652 8.04429 37.8676 7.56055C38.77 7.06303 39.7766 6.81421 40.8873 6.81421C41.9979 6.81421 43.0045 7.06303 43.9069 7.56055C44.8093 8.04429 45.5173 8.73532 46.031 9.63365C46.5586 10.532 46.8224 11.5686 46.8224 12.7433C46.8224 13.9181 46.5517 14.9547 46.0102 15.853C45.4826 16.7513 44.7607 17.4493 43.8444 17.9469C42.942 18.4305 41.9285 18.6724 40.804 18.6724ZM40.804 16.1432C41.3315 16.1432 41.8244 16.0188 42.2825 15.7701C42.7546 15.5075 43.1294 15.1205 43.4071 14.6091C43.6847 14.0978 43.8236 13.4758 43.8236 12.7433C43.8236 11.6515 43.5321 10.8153 42.9489 10.2349C42.3797 9.64057 41.6786 9.34342 40.8456 9.34342C40.0126 9.34342 39.3115 9.64057 38.7423 10.2349C38.1869 10.8153 37.9093 11.6515 37.9093 12.7433C37.9093 13.8352 38.18 14.6782 38.7215 15.2725C39.2768 15.853 39.971 16.1432 40.804 16.1432Z" fill="#000150"/>
<path d="M29.767 16.1846H34.5568V18.4857H26.8515V4.01538H29.767V16.1846Z" fill="#000150"/>
<path d="M48.2725 20.0284C49.011 22.2147 51.0867 23.7896 53.5319 23.7896H53.8362C56.9 23.7896 59.3838 21.3171 59.3838 18.2671V17.9551H56.3761V18.2671C56.3761 19.6636 55.239 20.7956 53.8362 20.7956H53.5319C52.817 20.7956 52.171 20.5016 51.7095 20.0284H48.2725Z" fill="#000150"/>
</g>
<defs>
<clipPath id="clip0_2004_823">
<rect width="134" height="24" fill="white" transform="translate(0.5)"/>
</clipPath>
</defs>
</svg>
